G04 ---------------------------- Layer name :BOTTOM LAYER*
G04 easyEDA 0.1*
G04 Scale: 100 percent, Rotated: No, Reflected: No *
G04 Dimensions in inches *
G04 leading zeros omitted , absolute positions ,2 integer and 4 * 
%FSLAX24Y24*%
%MOIN*%
G90*
G70D02*

%ADD10C,0.010000*%
%ADD11C,0.024400*%
%ADD12R,0.013780X0.059055*%
%ADD13R,0.043307X0.043307*%
%ADD14C,0.118110*%

%LPD*%
G54D10*
G01X3000Y2507D02*
G01X2567Y3175D01*
G01X2567Y3176D01*
G01X2567Y3730D01*
G01X2565Y3730D01*
G01X3000Y2507D02*
G01X3432Y3175D01*
G01X3432Y3176D01*
G01X3432Y3730D01*
G01X3436Y3734D01*
G01X3000Y9711D02*
G01X2015Y9711D01*
G01X2015Y8923D01*
G01X2017Y8921D01*
G01X3000Y9711D02*
G01X3984Y9711D01*
G01X4023Y9671D01*
G01X4023Y8937D01*
G01X4013Y8928D01*
G01X1765Y8923D02*
G01X1765Y9696D01*
G01X1779Y9711D01*
G01X598Y9711D01*
G01X598Y6088D01*
G01X598Y5616D01*
G01X2566Y5616D01*
G01X2566Y5069D01*
G01X2565Y5069D01*
G01X3436Y5071D02*
G01X3436Y5613D01*
G01X3433Y5616D01*
G01X5401Y5616D01*
G01X5401Y8963D01*
G01X5401Y9711D01*
G01X4259Y9711D01*
G01X4259Y8933D01*
G01X4265Y8928D01*
G54D12*
G01X1497Y8922D03*
G01X2268Y8922D03*
G01X2016Y8922D03*
G01X1765Y8922D03*
G01X1497Y6708D03*
G01X2268Y6708D03*
G01X2016Y6708D03*
G01X1764Y6708D03*
G01X3745Y8927D03*
G01X4517Y8927D03*
G01X4265Y8927D03*
G01X4013Y8927D03*
G01X3745Y6713D03*
G01X4517Y6713D03*
G01X4265Y6713D03*
G01X4013Y6713D03*
G54D13*
G01X597Y5069D03*
G01X597Y3730D03*
G01X2566Y5069D03*
G01X2566Y3730D03*
G01X3436Y5072D03*
G01X3436Y3733D03*
G01X5404Y5072D03*
G01X5405Y3733D03*
G54D14*
G01X3000Y1500D03*
G54D11*
G01X3000Y2507D03*
G01X3000Y9711D03*
G54D14*
G01X3000Y1500D03*

M00*
M02*