G04 ---------------------------- Layer name :BOTTOM SILK LAYER*
G04 easyEDA 0.1*
G04 Scale: 100 percent, Rotated: No, Reflected: No *
G04 Dimensions in inches *
G04 leading zeros omitted , absolute positions ,2 integer and 4 * 
%FSLAX24Y24*%
%MOIN*%
G90*
G70D02*

%ADD11C,0.008000*%

%LPD*%
G54D11*
G01X4432Y12464D02*
G01X4253Y12643D01*
G01X3984Y12822D01*
G01X3626Y13001D01*
G01X3178Y13090D01*
G01X2821Y13090D01*
G01X2373Y13001D01*
G01X2015Y12822D01*
G01X1746Y12643D01*
G01X1567Y12464D01*
G01X3859Y11938D02*
G01X3751Y12045D01*
G01X3590Y12153D01*
G01X3376Y12260D01*
G01X3107Y12314D01*
G01X2892Y12314D01*
G01X2623Y12260D01*
G01X2409Y12153D01*
G01X2248Y12045D01*
G01X2140Y11938D01*
G01X3286Y11364D02*
G01X3251Y11400D01*
G01X3196Y11436D01*
G01X3125Y11471D01*
G01X3036Y11489D01*
G01X2963Y11489D01*
G01X2875Y11471D01*
G01X2803Y11436D01*
G01X2748Y11400D01*
G01X2713Y11364D01*
G01X5003Y12939D02*
G01X4753Y13190D01*
G01X4378Y13440D01*
G01X3876Y13691D01*
G01X3251Y13816D01*
G01X2748Y13816D01*
G01X2123Y13691D01*
G01X1621Y13440D01*
G01X1246Y13190D01*
G01X996Y12939D01*

M00*
M02*