G04 ---------------------------- Layer name :KeepOutLayer *
G04 easyEDA 0.1*
G04 Scale: 100 percent, Rotated: No, Reflected: No *
G04 Dimensions in inches *
G04 leading zeros omitted , absolute positions ,2 integer and 4 * 
%FSLAX24Y24*%
%MOIN*%
G90*
G70D02*

%ADD10C,0.010000*%
G54D10*
G01X5619Y15799D02*
G01X403Y15799D01*
G01X346Y15794D01*
G01X288Y15779D01*
G01X234Y15753D01*
G01X186Y15718D01*
G01X144Y15675D01*
G01X109Y15625D01*
G01X82Y15569D01*
G01X65Y15509D01*
G01X57Y15444D01*
G01X57Y15195D01*
G01X57Y2853D01*
G01X71Y2560D01*
G01X167Y2050D01*
G01X346Y1575D01*
G01X601Y1143D01*
G01X922Y762D01*
G01X1303Y440D01*
G01X1735Y186D01*
G01X2210Y7D01*
G01X2720Y-88D01*
G01X3252Y-92D01*
G01X3765Y-5D01*
G01X4244Y166D01*
G01X4680Y414D01*
G01X5066Y730D01*
G01X5393Y1106D01*
G01X5654Y1534D01*
G01X5840Y2005D01*
G01X5944Y2512D01*
G01X5963Y2850D01*
G01X5963Y15438D01*
G01X5956Y15503D01*
G01X5940Y15564D01*
G01X5914Y15621D01*
G01X5880Y15671D01*
G01X5839Y15714D01*
G01X5791Y15750D01*
G01X5738Y15777D01*
G01X5680Y15794D01*

%LPD*%

M00*
M02*