G04 ---------------------------- Layer name :TOP PASTER LAYER*
G04 easyEDA 0.1*
G04 Scale: 100 percent, Rotated: No, Reflected: No *
G04 Dimensions in inches *
G04 leading zeros omitted , absolute positions ,2 integer and 4 * 
%FSLAX24Y24*%
%MOIN*%
G90*
G70D02*

%ADD12R,0.011417X1.181100*%
%ADD13R,0.510629X0.011417*%
%ADD14R,0.488975X0.011417*%
%ADD15R,0.011417X1.159840*%
%ADD16R,0.468109X0.011417*%
%ADD17R,0.011417X1.138187*%
%ADD18R,0.446062X0.011417*%
%ADD19R,0.011417X1.116140*%
%ADD20R,0.424410X0.011417*%
%ADD21R,0.011417X1.094486*%
%ADD22R,0.402755X0.011417*%
%ADD23R,0.011417X1.070864*%
%ADD24R,0.380710X0.011417*%
%ADD25R,0.011417X1.049604*%
%ADD26R,0.359450X0.011417*%
%ADD27R,0.011417X1.027951*%
%ADD28R,0.337795X0.011417*%
%ADD29R,0.011417X1.005904*%
%ADD30R,0.316140X0.011417*%
%ADD31R,0.011417X0.983860*%
%ADD32R,0.294488X0.011417*%
%ADD33R,0.011417X0.962990*%
%ADD34R,0.271650X0.011417*%
%ADD35R,0.011417X0.940940*%
%ADD36R,0.249999X0.011417*%
%ADD37R,0.011417X0.917715*%
%ADD38R,0.225984X0.011417*%
%ADD39R,0.011417X0.896061*%
%ADD40R,0.204330X0.011417*%
%ADD41R,0.011417X0.874408*%
%ADD42R,0.182677X0.011417*%
%ADD43R,0.011417X0.851179*%
%ADD44R,0.161420X0.011417*%
%ADD45R,0.011417X0.829526*%
%ADD46R,0.139370X0.011417*%
%ADD47R,0.011417X0.807479*%
%ADD48R,0.118110X0.011417*%
%ADD49R,0.011417X0.785825*%
%ADD50R,0.096063X0.011417*%
%ADD51R,0.011417X0.764172*%
%ADD52R,0.074803X0.011417*%

%LPD*%
G54D12*
G01X517Y8806D03*
G54D13*
G01X3013Y14656D03*
G54D12*
G01X5509Y8806D03*
G54D14*
G01X3120Y2955D03*
G54D15*
G01X734Y8699D03*
G54D16*
G01X3017Y14440D03*
G54D17*
G01X5301Y8806D03*
G54D18*
G01X3128Y3172D03*
G54D19*
G01X954Y8696D03*
G54D20*
G01X3021Y14219D03*
G54D21*
G01X5080Y8802D03*
G54D22*
G01X3123Y3384D03*
G54D23*
G01X1167Y8684D03*
G54D24*
G01X3013Y13983D03*
G54D25*
G01X4860Y8790D03*
G54D26*
G01X3120Y3601D03*
G54D27*
G01X1380Y8684D03*
G54D28*
G01X3013Y13766D03*
G54D29*
G01X4647Y8794D03*
G54D30*
G01X3119Y3821D03*
G54D31*
G01X1596Y8684D03*
G54D32*
G01X3013Y13546D03*
G54D33*
G01X4431Y8786D03*
G54D34*
G01X3127Y4026D03*
G54D35*
G01X1824Y8676D03*
G54D36*
G01X3017Y13325D03*
G54D37*
G01X4210Y8794D03*
G54D38*
G01X3135Y4262D03*
G54D39*
G01X2061Y8684D03*
G54D40*
G01X3025Y13109D03*
G54D41*
G01X3990Y8794D03*
G54D42*
G01X3132Y4479D03*
G54D43*
G01X2277Y8680D03*
G54D44*
G01X3029Y12880D03*
G54D45*
G01X3777Y8786D03*
G54D46*
G01X3135Y4695D03*
G54D47*
G01X2494Y8676D03*
G54D48*
G01X3025Y12656D03*
G54D49*
G01X3557Y8782D03*
G54D50*
G01X3135Y4908D03*
G54D51*
G01X2710Y8672D03*
G54D52*
G01X3025Y12440D03*

M00*
M02*